HIERARCHY
ROOT root
{
	OFFSET 0.000000 0.000000 0.000000
	CHANNELS 6 Xposition Yposition Zposition Zrotation Yrotation Xrotation
	JOINT lhip
	{
		OFFSET 0.058581 -0.082280 -0.017664
		CHANNELS 3 Zrotation Yrotation Xrotation
		JOINT lknee
		{
			OFFSET 0.043451 -0.386469 0.008037
			CHANNELS 3 Zrotation Yrotation Xrotation
			JOINT lankle
			{
				OFFSET -0.014790 -0.426874 -0.037428
				CHANNELS 3 Zrotation Yrotation Xrotation
				JOINT ltoe
				{
					OFFSET 0.041054 -0.060286 0.122042
					CHANNELS 3 Zrotation Yrotation Xrotation
					End Site
					{
						OFFSET 0.000000 0.000000 0.000000
					}
				}
			}
		}
	}
	JOINT rhip
	{
		OFFSET -0.060310 -0.090513 -0.013543
		CHANNELS 3 Zrotation Yrotation Xrotation
		JOINT rknee
		{
			OFFSET -0.043257 -0.383688 -0.004843
			CHANNELS 3 Zrotation Yrotation Xrotation
			JOINT rankle
			{
				OFFSET 0.019056 -0.420046 -0.034562
				CHANNELS 3 Zrotation Yrotation Xrotation
				JOINT rtoe
				{
					OFFSET -0.034840 -0.062106 0.130323
					CHANNELS 3 Zrotation Yrotation Xrotation
					End Site
					{
						OFFSET 0.000000 0.000000 0.000000
					}
				}
			}
		}
	}
	JOINT lowerback
	{
		OFFSET 0.004439 0.124404 -0.038385
		CHANNELS 3 Zrotation Yrotation Xrotation
		JOINT upperback
		{
			OFFSET 0.004488 0.137956 0.026820
			CHANNELS 3 Zrotation Yrotation Xrotation
			JOINT chest
			{
				OFFSET -0.002265 0.056032 0.002855
				CHANNELS 3 Zrotation Yrotation Xrotation
				JOINT lowerneck
				{
					OFFSET -0.013390 0.211636 -0.033468
					CHANNELS 3 Zrotation Yrotation Xrotation
					JOINT upperneck
					{
						OFFSET 0.010113 0.088937 0.050410
						CHANNELS 3 Zrotation Yrotation Xrotation
						End Site
						{
							OFFSET 0.000000 0.000000 0.000000
						}
					}
				}
				JOINT lclavicle
				{
					OFFSET 0.071702 0.114000 -0.018898
					CHANNELS 3 Zrotation Yrotation Xrotation
					JOINT lshoulder
					{
						OFFSET 0.122921 0.045205 -0.019046
						CHANNELS 3 Zrotation Yrotation Xrotation
						JOINT lelbow
						{
							OFFSET 0.255332 -0.015649 -0.022946
							CHANNELS 3 Zrotation Yrotation Xrotation
							JOINT lwrist
							{
								OFFSET 0.265709 0.012698 -0.007375
								CHANNELS 3 Zrotation Yrotation Xrotation
								End Site
								{
									OFFSET 0.000000 0.000000 0.000000
								}
							}
						}
					}
				}
				JOINT rclavicle
				{
					OFFSET -0.082954 0.112472 -0.023707
					CHANNELS 3 Zrotation Yrotation Xrotation
					JOINT rshoulder
					{
						OFFSET -0.113228 0.046853 -0.008472
						CHANNELS 3 Zrotation Yrotation Xrotation
						JOINT relbow
						{
							OFFSET -0.260127 -0.014369 -0.031269
							CHANNELS 3 Zrotation Yrotation Xrotation
							JOINT rwrist
							{
								OFFSET -0.269108 0.006794 -0.006027
								CHANNELS 3 Zrotation Yrotation Xrotation
								End Site
								{
									OFFSET 0.000000 0.000000 0.000000
								}
							}
						}
					}
				}
			}
		}
	}
}
MOTION
Frames: 5
Frame Time: 0.033333
0.564309 1.167351 0.717372 7.547755 -0.957692 38.525055 10.503147 -1.158039 -12.478772 -2.447287 -3.447898 29.571973 -13.723664 -0.867045 23.231062 0.000000 -0.000000 0.000000 -14.816742 -4.254038 -9.092673 -5.466869 -2.717548 26.510106 9.089156 -0.889488 24.317849 0.000000 -0.000000 0.000000 1.894088 1.923540 32.529063 0.656203 -3.334825 26.628887 1.046106 -0.892229 -7.181385 -5.218121 16.147143 8.769123 -4.556680 28.229254 -1.953075 -39.367457 -16.652684 6.780302 -39.101340 -8.240502 9.916582 22.426956 -69.908278 -2.544565 -17.516488 -3.544333 10.488243 39.067210 19.891108 13.256398 39.816231 12.737140 9.347568 -35.665443 53.326534 -24.124144 27.273792 -2.505725 22.069004 
0.564507 1.167539 0.717353 7.560057 -0.968522 38.381389 10.423044 -0.857707 -12.459540 -2.239267 -3.587325 29.746324 -14.045716 -1.215883 23.445692 0.000000 -0.000000 0.000000 -14.849349 -4.485682 -9.063225 -5.851871 -2.356590 26.614381 9.965156 -0.353959 25.036720 0.000000 -0.000000 0.000000 1.906264 1.630028 32.986843 0.392618 -3.243573 25.515483 0.978595 -0.765690 -6.158911 -5.104296 16.180497 8.009624 -4.044126 27.448780 -0.821520 -39.042656 -16.676058 6.726182 -39.378050 -8.405977 9.510892 22.306661 -70.067364 -1.480736 -18.387792 -3.484581 9.802791 39.376825 19.845402 13.617919 39.128445 12.956103 8.957570 -35.259157 53.703470 -22.763583 27.237340 -1.716881 21.048473 
0.564302 1.166986 0.716850 7.535336 -0.836724 38.697863 10.642756 -1.278137 -12.918550 -2.350112 -3.035035 29.951551 -13.618369 -1.385826 23.426204 0.000000 -0.000000 0.000000 -14.846854 -4.042090 -9.168838 -4.337785 -3.416401 26.394589 6.447142 -2.036349 23.661682 0.000000 -0.000000 0.000000 1.913909 1.493684 32.450504 0.450952 -3.203602 25.644259 0.883612 -0.844934 -6.074252 -5.201087 15.797912 7.669989 -3.697192 27.706042 -0.390182 -38.961474 -16.555750 6.625129 -39.451965 -8.405808 9.841799 23.407178 -70.036103 -2.478603 -18.682299 -3.592731 9.314859 39.440910 19.945124 13.801467 39.578397 13.171782 9.440082 -36.377930 53.242213 -23.921611 27.744482 -2.092314 20.902981 
0.564299 1.167108 0.717435 7.537441 -0.901828 38.503185 10.494316 -0.964721 -12.570708 -2.272982 -3.353641 29.756793 -13.661609 -1.158384 23.221917 0.000000 -0.000000 0.000000 -14.799400 -4.445354 -9.050131 -5.388026 -2.561161 26.600089 9.042748 -0.759268 24.163878 0.000000 -0.000000 0.000000 1.760716 1.548772 32.752107 0.407595 -3.311135 25.519674 1.039406 -0.595095 -6.009145 -5.208935 15.880794 7.633893 -3.601824 27.203914 -0.331813 -38.939784 -16.824719 6.708271 -39.620718 -8.269984 9.615933 23.092760 -70.032566 -2.174550 -17.894314 -3.615157 9.574098 39.358467 20.197187 13.807127 39.520527 12.922352 8.926198 -36.101193 53.524518 -23.757450 26.741978 -1.843370 21.268839 
0.564281 1.167005 0.717319 7.473389 -0.834554 38.503656 10.635132 -0.841295 -12.627628 -2.319323 -3.502524 29.818358 -13.874691 -1.330346 23.319973 0.000000 -0.000000 0.000000 -14.630628 -4.530057 -9.113114 -5.518267 -2.588038 26.720699 8.996294 -0.702213 23.951468 0.000000 -0.000000 0.000000 1.859444 1.473706 32.754966 0.418914 -3.274992 25.459807 1.006635 -0.612682 -6.012009 -5.326306 15.807424 7.704202 -3.400254 26.992586 -0.253324 -38.887691 -16.802564 6.763939 -39.646992 -8.294553 9.541605 22.604319 -70.027624 -1.717468 -17.767348 -3.680467 9.444727 39.270215 20.154797 13.894514 39.614906 13.027053 8.826251 -35.813932 53.540393 -23.374105 26.315454 -1.721886 21.270129 
